<?xml version="1.0" encoding="UTF-8"?>
<svg width="24" height="24" viewBox="0 0 24 24" fill="none" xmlns="http://www.w3.org/2000/svg">
    <path d="M14 2H6C4.89543 2 4 2.89543 4 4V20C4 21.1046 4.89543 22 6 22H18C19.1046 22 20 21.1046 20 20V8L14 2Z" fill="#90CAF9"/>
    <path d="M14 2V8H20L14 2Z" fill="#64B5F6"/>
    <path d="M12 11C10.8954 11 10 11.8954 10 13V15C10 16.1046 10.8954 17 12 17C13.1046 17 14 16.1046 14 15V13C14 11.8954 13.1046 11 12 11Z" fill="#FFD54F"/>
    <path d="M12 7C13.1046 7 14 7.89543 14 9V11C14 12.1046 13.1046 13 12 13C10.8954 13 10 12.1046 10 11V9C10 7.89543 10.8954 7 12 7Z" fill="#4CAF50"/>
</svg>
