<svg xmlns="http://www.w3.org/2000/svg" xmlns:xlink="http://www.w3.org/1999/xlink" width="1024" zoomAndPan="magnify" viewBox="0 0 768 767.999994" height="1024" preserveAspectRatio="xMidYMid meet" version="1.0"><defs><clipPath id="eca29e09d6"><path d="M 64.882812 443 L 703.132812 443 L 703.132812 703.777344 L 64.882812 703.777344 Z M 64.882812 443 " clip-rule="nonzero"/></clipPath><clipPath id="7d47a1ad63"><path d="M 64.882812 313 L 703.132812 313 L 703.132812 566 L 64.882812 566 Z M 64.882812 313 " clip-rule="nonzero"/></clipPath><clipPath id="63a0ed6d0f"><path d="M 64.882812 184 L 703.132812 184 L 703.132812 437 L 64.882812 437 Z M 64.882812 184 " clip-rule="nonzero"/></clipPath><clipPath id="bdef36ec6f"><path d="M 64.882812 64.027344 L 703.132812 64.027344 L 703.132812 621 L 64.882812 621 Z M 64.882812 64.027344 " clip-rule="nonzero"/></clipPath></defs><g clip-path="url(#eca29e09d6)"><path fill="#064d6d" d="M 384 703.777344 C 298.929688 703.777344 218.933594 691.230469 158.746094 668.441406 C 98.25 645.535156 64.929688 614.953125 64.925781 582.332031 L 64.921875 444.128906 C 64.921875 443.566406 65.378906 443.109375 65.941406 443.109375 C 66.507812 443.109375 66.964844 443.566406 66.964844 444.128906 C 66.964844 468.636719 86.667969 492.214844 123.949219 512.320312 C 183.363281 544.390625 280.578125 563.535156 384 563.535156 C 487.421875 563.535156 584.640625 544.390625 644.054688 512.320312 C 681.332031 492.214844 701.039062 468.636719 701.039062 444.128906 C 701.039062 443.566406 701.496094 443.109375 702.058594 443.109375 C 702.625 443.109375 703.078125 443.566406 703.078125 444.128906 L 703.078125 582.332031 C 703.074219 614.953125 669.753906 645.535156 609.257812 668.441406 C 549.070312 691.230469 469.074219 703.777344 384 703.777344 Z M 639.9375 553.84375 C 622.109375 553.84375 607.601562 568.34375 607.601562 586.167969 C 607.601562 603.992188 622.109375 618.496094 639.9375 618.496094 C 657.765625 618.496094 672.273438 603.992188 672.273438 586.167969 C 672.273438 568.34375 657.765625 553.84375 639.9375 553.84375 Z M 639.9375 553.84375 " fill-opacity="1" fill-rule="nonzero"/></g><path fill="#064d6d" d="M 644.539062 513.21875 C 587.019531 544.265625 491.765625 564.554688 384 564.554688 C 276.234375 564.554688 180.984375 544.265625 123.460938 513.21875 C 87.210938 493.667969 65.941406 469.84375 65.941406 444.128906 L 65.941406 582.332031 L 65.945312 582.332031 C 65.957031 648.839844 208.351562 702.757812 384 702.757812 C 559.652344 702.757812 702.046875 648.839844 702.058594 582.332031 L 702.058594 444.128906 C 702.058594 469.84375 680.792969 493.667969 644.539062 513.21875 Z M 639.9375 619.515625 C 621.515625 619.515625 606.582031 604.585938 606.582031 586.167969 C 606.582031 567.753906 621.515625 552.824219 639.9375 552.824219 C 658.359375 552.824219 673.292969 567.753906 673.292969 586.167969 C 673.292969 604.585938 658.359375 619.515625 639.9375 619.515625 Z M 639.9375 619.515625 " fill-opacity="1" fill-rule="nonzero"/><g clip-path="url(#7d47a1ad63)"><path fill="#0a699e" d="M 384 565.578125 C 280.253906 565.578125 182.675781 546.339844 122.976562 514.117188 C 84.996094 493.632812 64.921875 469.429688 64.921875 444.128906 L 64.921875 314.8125 C 64.921875 314.25 65.378906 313.792969 65.941406 313.792969 C 66.507812 313.792969 66.964844 314.25 66.964844 314.8125 C 66.964844 339.320312 86.667969 362.898438 123.949219 383.003906 C 183.363281 415.074219 280.578125 434.222656 384 434.222656 C 487.421875 434.222656 584.640625 415.074219 644.054688 383.003906 C 681.332031 362.898438 701.039062 339.320312 701.039062 314.8125 C 701.039062 314.25 701.496094 313.792969 702.058594 313.792969 C 702.625 313.792969 703.078125 314.25 703.078125 314.8125 L 703.078125 444.128906 C 703.078125 469.433594 683.003906 493.632812 645.023438 514.117188 C 585.324219 546.339844 487.746094 565.578125 384 565.578125 Z M 639.9375 424.527344 C 622.109375 424.527344 607.601562 439.03125 607.601562 456.855469 C 607.601562 474.679688 622.109375 489.179688 639.9375 489.179688 C 657.765625 489.179688 672.273438 474.679688 672.273438 456.855469 C 672.273438 439.03125 657.765625 424.527344 639.9375 424.527344 Z M 639.9375 424.527344 " fill-opacity="1" fill-rule="nonzero"/></g><path fill="#0a699e" d="M 644.539062 383.902344 C 587.019531 414.949219 491.765625 435.242188 384 435.242188 C 276.234375 435.242188 180.984375 414.949219 123.460938 383.902344 C 87.210938 364.351562 65.941406 340.527344 65.941406 314.8125 L 65.941406 444.128906 C 65.941406 469.84375 87.210938 493.667969 123.460938 513.21875 C 180.984375 544.265625 276.234375 564.554688 384 564.554688 C 491.765625 564.554688 587.019531 544.265625 644.539062 513.21875 C 680.792969 493.667969 702.058594 469.84375 702.058594 444.128906 L 702.058594 314.8125 C 702.058594 340.527344 680.792969 364.351562 644.539062 383.902344 Z M 639.9375 490.199219 C 621.515625 490.199219 606.582031 475.269531 606.582031 456.855469 C 606.582031 438.4375 621.515625 423.507812 639.9375 423.507812 C 658.359375 423.507812 673.292969 438.4375 673.292969 456.855469 C 673.292969 475.269531 658.359375 490.199219 639.9375 490.199219 Z M 639.9375 490.199219 " fill-opacity="1" fill-rule="nonzero"/><g clip-path="url(#63a0ed6d0f)"><path fill="#1986cf" d="M 384 436.261719 C 280.253906 436.261719 182.675781 417.023438 122.976562 384.800781 C 84.996094 364.316406 64.921875 340.117188 64.921875 314.8125 L 64.921875 185.5 C 64.921875 184.9375 65.378906 184.480469 65.941406 184.480469 C 66.507812 184.480469 66.964844 184.9375 66.964844 185.5 C 66.964844 210.003906 86.667969 233.585938 123.949219 253.691406 C 183.363281 285.761719 280.578125 304.90625 384 304.90625 C 487.421875 304.90625 584.640625 285.761719 644.054688 253.691406 C 681.332031 233.585938 701.039062 210.003906 701.039062 185.5 C 701.039062 184.9375 701.496094 184.480469 702.058594 184.480469 C 702.625 184.480469 703.078125 184.9375 703.078125 185.5 L 703.078125 314.8125 C 703.078125 340.117188 683.003906 364.316406 645.023438 384.800781 C 585.324219 417.023438 487.746094 436.261719 384 436.261719 Z M 639.9375 295.214844 C 622.109375 295.214844 607.601562 309.714844 607.601562 327.539062 C 607.601562 345.363281 622.109375 359.863281 639.9375 359.863281 C 657.765625 359.863281 672.273438 345.363281 672.273438 327.539062 C 672.273438 309.714844 657.765625 295.214844 639.9375 295.214844 Z M 639.9375 295.214844 " fill-opacity="1" fill-rule="nonzero"/></g><path fill="#1986cf" d="M 644.539062 254.589844 C 587.019531 285.636719 491.765625 305.925781 384 305.925781 C 276.234375 305.925781 180.984375 285.636719 123.460938 254.589844 C 87.210938 235.035156 65.941406 211.214844 65.941406 185.5 L 65.941406 314.8125 C 65.941406 340.53125 87.210938 364.351562 123.460938 383.902344 C 180.984375 414.949219 276.234375 435.242188 384 435.242188 C 491.765625 435.242188 587.019531 414.949219 644.539062 383.902344 C 680.792969 364.351562 702.058594 340.527344 702.058594 314.8125 L 702.058594 185.5 C 702.058594 211.214844 680.792969 235.035156 644.539062 254.589844 Z M 639.9375 360.886719 C 621.515625 360.886719 606.582031 345.957031 606.582031 327.539062 C 606.582031 309.125 621.515625 294.195312 639.9375 294.195312 C 658.359375 294.195312 673.292969 309.125 673.292969 327.539062 C 673.292969 345.957031 658.359375 360.886719 639.9375 360.886719 Z M 639.9375 360.886719 " fill-opacity="1" fill-rule="nonzero"/><g clip-path="url(#bdef36ec6f)"><path fill="#a4b9fb" d="M 639.9375 620.535156 C 620.980469 620.535156 605.558594 605.121094 605.558594 586.167969 C 605.558594 567.21875 620.980469 551.804688 639.9375 551.804688 C 658.894531 551.804688 674.316406 567.21875 674.316406 586.167969 C 674.316406 605.121094 658.894531 620.535156 639.9375 620.535156 Z M 639.9375 491.222656 C 620.980469 491.222656 605.558594 475.804688 605.558594 456.855469 C 605.558594 437.90625 620.980469 422.488281 639.9375 422.488281 C 658.894531 422.488281 674.316406 437.90625 674.316406 456.855469 C 674.316406 475.804688 658.894531 491.222656 639.9375 491.222656 Z M 639.9375 361.90625 C 620.980469 361.90625 605.558594 346.488281 605.558594 327.539062 C 605.558594 308.589844 620.980469 293.175781 639.9375 293.175781 C 658.894531 293.175781 674.316406 308.589844 674.316406 327.539062 C 674.316406 346.488281 658.894531 361.90625 639.9375 361.90625 Z M 384 306.945312 C 280.253906 306.945312 182.675781 287.710938 122.976562 255.484375 C 84.996094 235.003906 64.921875 210.804688 64.921875 185.5 C 64.921875 184.070312 64.976562 182.757812 65.085938 181.488281 C 67.773438 149.730469 102.253906 120.109375 162.179688 98.089844 C 221.953125 76.125 300.730469 64.027344 384 64.027344 C 467.269531 64.027344 546.046875 76.125 605.820312 98.089844 C 665.746094 120.109375 700.226562 149.730469 702.914062 181.488281 C 703.027344 182.753906 703.078125 184.066406 703.078125 185.5 C 703.078125 210.804688 683.003906 235.003906 645.023438 255.484375 C 585.324219 287.710938 487.746094 306.945312 384 306.945312 Z M 384 306.945312 " fill-opacity="1" fill-rule="nonzero"/></g><path fill="#a4b9fb" d="M 65.941406 185.5 C 65.941406 184.183594 65.988281 182.890625 66.101562 181.574219 C 71.578125 116.871094 211.808594 65.050781 384 65.050781 C 556.191406 65.050781 696.425781 116.871094 701.898438 181.574219 C 702.011719 182.890625 702.058594 184.183594 702.058594 185.5 C 702.058594 211.214844 680.792969 235.035156 644.539062 254.589844 C 587.019531 285.636719 491.765625 305.925781 384 305.925781 C 276.234375 305.925781 180.984375 285.636719 123.460938 254.589844 C 87.210938 235.035156 65.941406 211.214844 65.941406 185.5 Z M 639.9375 294.195312 C 621.515625 294.195312 606.582031 309.125 606.582031 327.539062 C 606.582031 345.957031 621.515625 360.886719 639.9375 360.886719 C 658.359375 360.886719 673.292969 345.957031 673.292969 327.539062 C 673.292969 309.125 658.359375 294.195312 639.9375 294.195312 Z M 639.9375 423.507812 C 621.515625 423.507812 606.582031 438.4375 606.582031 456.855469 C 606.582031 475.269531 621.515625 490.199219 639.9375 490.199219 C 658.359375 490.199219 673.292969 475.269531 673.292969 456.855469 C 673.292969 438.4375 658.359375 423.507812 639.9375 423.507812 Z M 639.9375 552.824219 C 621.515625 552.824219 606.582031 567.753906 606.582031 586.167969 C 606.582031 604.585938 621.515625 619.515625 639.9375 619.515625 C 658.359375 619.515625 673.292969 604.585938 673.292969 586.167969 C 673.292969 567.753906 658.359375 552.824219 639.9375 552.824219 Z M 639.9375 552.824219 " fill-opacity="1" fill-rule="nonzero"/></svg>